<svg width="30" height="30" viewBox="0 0 30 30" fill="none" xmlns="http://www.w3.org/2000/svg">
<path d="M15 0C16.9698 -2.93527e-08 18.9204 0.387986 20.7403 1.14181C22.5601 1.89563 24.2137 3.00052 25.6066 4.3934C26.9995 5.78628 28.1044 7.43986 28.8582 9.25975C29.612 11.0796 30 13.0302 30 15C30 16.9698 29.612 18.9204 28.8582 20.7403C28.1044 22.5601 26.9995 24.2137 25.6066 25.6066C24.2137 26.9995 22.5601 28.1044 20.7403 28.8582C18.9204 29.612 16.9698 30 15 30C11.0218 30 7.20644 28.4196 4.3934 25.6066C1.58035 22.7936 0 18.9782 0 15C0 11.0218 1.58035 7.20644 4.3934 4.3934C7.20644 1.58035 11.0218 5.92805e-08 15 0ZM15 2.5C11.6848 2.5 8.50537 3.81696 6.16117 6.16117C3.81696 8.50537 2.5 11.6848 2.5 15C2.5 18.3152 3.81696 21.4946 6.16117 23.8388C8.50537 26.183 11.6848 27.5 15 27.5C18.3152 27.5 21.4946 26.183 23.8388 23.8388C26.183 21.4946 27.5 18.3152 27.5 15C27.5 11.6848 26.183 8.50537 23.8388 6.16117C21.4946 3.81696 18.3152 2.5 15 2.5ZM13.125 17.605L20.3 10.41C20.5201 10.1877 20.8155 10.0559 21.1279 10.0408C21.4404 10.0257 21.7471 10.1282 21.9876 10.3282C22.2282 10.5283 22.3849 10.8112 22.427 11.1211C22.4691 11.4311 22.3935 11.7456 22.215 12.0025L22.07 12.1775L14.01 20.2575C13.8035 20.465 13.5307 20.5933 13.2392 20.6203C12.9478 20.6473 12.6561 20.5711 12.415 20.405L12.24 20.26L7.865 15.885C7.64354 15.6645 7.51269 15.3691 7.49824 15.0569C7.48379 14.7448 7.58679 14.4385 7.78694 14.1985C7.98708 13.9586 8.26986 13.8022 8.57954 13.7604C8.88922 13.7186 9.20334 13.7942 9.46 13.9725L9.635 14.115L13.125 17.605Z" fill="#26D782"/>
</svg>
